<svg xmlns="http://www.w3.org/2000/svg" width="100%" height="100%" viewBox="0 0 60 60">
  <rect height="58"  width="25" x="6" y="1"></rect>
  <g fill="#494949">
    <path d="M23.2,8.6h1.6c0.2,0,0.4-0.2,0.4-0.5v-2c0-0.3-0.2-0.5-0.4-0.5h-1.6c-0.2,0-0.4,0.2-0.4,0.5v2
          C22.8,8.4,23,8.6,23.2,8.6L23.2,8.6z M23.2,17.5h1.6c0.2,0,0.4-0.2,0.4-0.5v-2c0-0.3-0.2-0.5-0.4-0.5h-1.6c-0.2,0-0.4,0.2-0.4,0.5
          v2C22.8,17.3,23,17.5,23.2,17.5L23.2,17.5z M14.7,8.6h1.6c0.2,0,0.4-0.2,0.4-0.5v-2c0-0.3-0.2-0.5-0.4-0.5h-1.6
          c-0.2,0-0.4,0.2-0.4,0.5v2C14.3,8.4,14.5,8.6,14.7,8.6L14.7,8.6z M14.7,17.5h1.6c0.2,0,0.4-0.2,0.4-0.5v-2c0-0.3-0.2-0.5-0.4-0.5
          h-1.6c-0.2,0-0.4,0.2-0.4,0.5v2C14.3,17.3,14.5,17.5,14.7,17.5L14.7,17.5z M14.7,26.4h1.6c0.2,0,0.4-0.2,0.4-0.5v-2
          c0-0.3-0.2-0.5-0.4-0.5h-1.6c-0.2,0-0.4,0.2-0.4,0.5v2C14.3,26.2,14.5,26.4,14.7,26.4L14.7,26.4z M14.7,53.1h1.6
          c0.2,0,0.4-0.2,0.4-0.5v-2c0-0.3-0.2-0.5-0.4-0.5h-1.6c-0.2,0-0.4,0.2-0.4,0.5v2C14.3,52.9,14.5,53.1,14.7,53.1L14.7,53.1z
            M14.7,44.2h1.6c0.2,0,0.4-0.2,0.4-0.5v-2c0-0.3-0.2-0.5-0.4-0.5h-1.6c-0.2,0-0.4,0.2-0.4,0.5v2C14.3,44,14.5,44.2,14.7,44.2
          L14.7,44.2z M14.7,35.3h1.6c0.2,0,0.4-0.2,0.4-0.5v-2c0-0.3-0.2-0.5-0.4-0.5h-1.6c-0.2,0-0.4,0.2-0.4,0.5v2
          C14.3,35.1,14.5,35.3,14.7,35.3L14.7,35.3z M6.2,8.6h1.6c0.2,0,0.4-0.2,0.4-0.5v-2c0-0.3-0.2-0.5-0.4-0.5H6.2
          c-0.2,0-0.4,0.2-0.4,0.5v2C5.7,8.4,5.9,8.6,6.2,8.6L6.2,8.6z M6.2,17.5h1.6c0.2,0,0.4-0.2,0.4-0.5v-2c0-0.3-0.2-0.5-0.4-0.5H6.2
          c-0.2,0-0.4,0.2-0.4,0.5v2C5.7,17.3,5.9,17.5,6.2,17.5L6.2,17.5z M6.2,26.4h1.6c0.2,0,0.4-0.2,0.4-0.5v-2c0-0.3-0.2-0.5-0.4-0.5
          H6.2c-0.2,0-0.4,0.2-0.4,0.5v2C5.7,26.2,5.9,26.4,6.2,26.4L6.2,26.4z M6.2,53.1h1.6c0.2,0,0.4-0.2,0.4-0.5v-2
          c0-0.3-0.2-0.5-0.4-0.5H6.2c-0.2,0-0.4,0.2-0.4,0.5v2C5.7,52.9,5.9,53.1,6.2,53.1L6.2,53.1z M6.2,44.2h1.6c0.2,0,0.4-0.2,0.4-0.5
          v-2c0-0.3-0.2-0.5-0.4-0.5H6.2c-0.2,0-0.4,0.2-0.4,0.5v2C5.7,44,5.9,44.2,6.2,44.2L6.2,44.2z M6.2,35.3h1.6c0.2,0,0.4-0.2,0.4-0.5
          v-2c0-0.3-0.2-0.5-0.4-0.5H6.2c-0.2,0-0.4,0.2-0.4,0.5v2C5.7,35.1,5.9,35.3,6.2,35.3L6.2,35.3z M46.7,28.9h-5v-2.2h5V28.9z
            M40.8,30.6h6.7c0.5,0,0.9-0.4,0.9-0.9v-3.9c0-0.5-0.4-0.9-0.9-0.9h-6.7c-0.5,0-0.9,0.4-0.9,0.9v3.9
          C39.9,30.2,40.3,30.6,40.8,30.6L40.8,30.6z M36.5,28.9h-5v-2.2h5V28.9z M30.6,30.6h6.7c0.5,0,0.9-0.4,0.9-0.9v-3.9
          c0-0.5-0.4-0.9-0.9-0.9h-6.7c-0.5,0-0.9,0.4-0.9,0.9v3.9C29.8,30.2,30.2,30.6,30.6,30.6L30.6,30.6z M46.7,36.6h-5v-2.2h5V36.6z
            M40.8,38.3h6.7c0.5,0,0.9-0.4,0.9-0.9v-3.9c0-0.5-0.4-0.9-0.9-0.9h-6.7c-0.5,0-0.9,0.4-0.9,0.9v3.9
          C39.9,37.9,40.3,38.3,40.8,38.3L40.8,38.3z M36.5,36.6h-5v-2.2h5V36.6z M30.6,38.3h6.7c0.5,0,0.9-0.4,0.9-0.9v-3.9
          c0-0.5-0.4-0.9-0.9-0.9h-6.7c-0.5,0-0.9,0.4-0.9,0.9v3.9C29.8,37.9,30.2,38.3,30.6,38.3L30.6,38.3z M46.7,44.3h-5v-2.2h5V44.3z
            M40.8,46h6.7c0.5,0,0.9-0.4,0.9-0.9v-3.9c0-0.5-0.4-0.9-0.9-0.9h-6.7c-0.5,0-0.9,0.4-0.9,0.9v3.9C39.9,45.6,40.3,46,40.8,46
          L40.8,46z M36.5,44.3h-5v-2.2h5V44.3z M30.6,46h6.7c0.5,0,0.9-0.4,0.9-0.9v-3.9c0-0.5-0.4-0.9-0.9-0.9h-6.7
          c-0.5,0-0.9,0.4-0.9,0.9v3.9C29.8,45.6,30.2,46,30.6,46L30.6,46z M46.7,52h-5v-2.2h5V52z M40.8,53.7h6.7c0.5,0,0.9-0.4,0.9-0.9
          v-3.9c0-0.5-0.4-0.9-0.9-0.9h-6.7c-0.5,0-0.9,0.4-0.9,0.9v3.9C39.9,53.3,40.3,53.7,40.8,53.7L40.8,53.7z M36.5,52h-5v-2.2h5V52z
            M37.4,53.7c0.5,0,0.9-0.4,0.9-0.9v-3.9c0-0.5-0.4-0.9-0.9-0.9h-6.7c-0.5,0-0.9,0.4-0.9,0.9v3.9c0,0.5,0.4,0.9,0.9,0.9H37.4z
            M50.2,58.3H28V21.6h22.2V58.3z M26.3,58.3l-24.6,0V1.7h28.7v18.2h-3.3c-0.5,0-0.9,0.4-0.9,0.9V58.3z M23.2,60H51
          c0.5,0,0.9-0.4,0.9-0.9V20.8c0-0.5-0.4-0.9-0.9-0.9H32.1V0.9c0-0.5-0.4-0.9-0.9-0.9H0.9C0.4,0,0,0.4,0,0.9v58.3
          c0,0.2,0.1,0.4,0.2,0.6C0.4,59.9,0.6,60,0.9,60L23.2,60z"/>
  </g>
</svg>

