<svg width="100%" height="100%" viewBox="0 0 60 60">
  <rect height="33" width="26" x="16" y="0" ></rect>
  <g fill="#494949">
    <path d="M20.9,31.9h17.9V21.1c0-0.1,0-0.2,0-0.3V2H12.3v29.9H20.9z M12.3,47.1h7.6V33.8h-7.6V47.1z
          M21.8,47.1h16.9V33.8H21.8V47.1z M40.8,47.1H58V22.1H40.8V47.1z M59,49H11.3c-0.5,0-1-0.4-1-1V1c0-0.5,0.4-1,1-1h28.5
          c0.5,0,1,0.4,1,1v19.2H59c0.5,0,1,0.4,1,1v26.9C60,48.6,59.6,49,59,49L59,49z M3.1,51.8c-0.3,0-0.6-0.2-0.8-0.4l-2-2
          c-0.4-0.4-0.4-1,0-1.4c0.4-0.4,1-0.4,1.4,0l0.4,0.4V3.3L1.7,3.8c-0.4,0.4-1,0.4-1.4,0s-0.4-1,0-1.4l2.1-2.1C2.6,0.1,2.8,0,3.1,0
          c0.3,0,0.7,0.2,0.8,0.4l2,2c0.4,0.4,0.4,1,0,1.4c-0.4,0.4-1,0.4-1.4,0L4.1,3.4v45.1l0.4-0.4c0.4-0.4,1-0.4,1.4,0
          c0.4,0.4,0.4,1,0,1.4l-2.1,2.1C3.6,51.7,3.4,51.8,3.1,51.8L3.1,51.8z M56.9,58.7c-0.3,0-0.5-0.1-0.7-0.3c-0.4-0.4-0.4-1,0-1.4
          l0.4-0.4H11.5l0.4,0.4c0.4,0.4,0.4,1,0,1.4c-0.4,0.4-1,0.4-1.4,0l-2.1-2.1c-0.2-0.2-0.3-0.5-0.3-0.7v0c0-0.3,0.2-0.6,0.4-0.8l2-2
          c0.4-0.4,1-0.4,1.4,0c0.4,0.4,0.4,1,0,1.4l-0.4,0.4h45.1l-0.4-0.4c-0.4-0.4-0.4-1,0-1.4c0.4-0.4,1-0.4,1.4,0l2.1,2.1
          c0.2,0.2,0.3,0.5,0.3,0.7v0c0,0.3-0.2,0.6-0.4,0.8l-2,2C57.4,58.6,57.1,58.7,56.9,58.7L56.9,58.7z"
          id="path-3_1_"/>
  </g>
</svg>
