<svg xmlns="http://www.w3.org/2000/svg" width="100%" height="100%" viewBox="0 0 60 60">
  <path d="M30.9,0.5c0.7,0,1.5,0.2,2.1,0.7l22.1,18.2c1.1,0.9,1.3,2.5,0.4,3.6
        c-0.8,1.1-2.4,1.3-3.5,0.5L27.7,6L5,23.5H0l1.2-1.2L28.4,1C29.1,0.5,30.1,0.3,30.9,0.5z M16,30h10v9H16V30z"
        id="tb-maison-fill-color"/>
<g fill="#494949">
  <path  d="M56,43.4c-0.6,0-1,0.4-1,1v1h-1v-1c0-0.6-0.4-1-1-1s-1,0.4-1,1v1h-1V25.2
          c0.5,0.2,1.1,0.4,1.6,0.4c1.1,0,2.1-0.4,2.9-1.3c0.8-0.8,1.1-1.9,1.1-3c-0.1-1.1-0.6-2.1-1.5-2.8L29.7-1.5L27-4l-2.7,2.5
          L-1.1,18.4c-0.9,0.7-1.4,1.7-1.5,2.8c-0.1,1.1,0.3,2.2,1.1,3c1.2,1.3,3,1.6,4.6,0.9v20.2H2v-1c0-0.6-0.4-1-1-1s-1,0.4-1,1v1h-1
          v-1c0-0.6-0.4-1-1-1s-1,0.4-1,1v9c0,0.6,0.4,1,1,1s1-0.4,1-1v-1h1v1c0,0.6,0.4,1,1,1s1-0.4,1-1v-1h1v2h26h14h8v-2h1v1
          c0,0.6,0.4,1,1,1s1-0.4,1-1v-1h1v1c0,0.6,0.4,1,1,1s1-0.4,1-1v-9C57,43.8,56.6,43.4,56,43.4z M-0.1,22.9c-0.4-0.4-0.6-1-0.5-1.5
          c0-0.6,0.3-1.1,0.8-1.4L25.6,0L27-1.3L28.4,0l25.4,19.9c0.4,0.3,0.7,0.9,0.8,1.4c0,0.6-0.1,1.1-0.5,1.5c-0.7,0.8-1.9,0.9-2.7,0.2
          L51,22.8L27,4.3L3.4,22.5l0,0l-0.8,0.6C1.8,23.7,0.6,23.6-0.1,22.9z M-1,50.4v-3h1v3H-1z M2,50.4v-3h1v3H2z M31,52.4v-22h10v22
          H31z M49,52.4h-6v-24H29v24H5V23.8l22-17l22,17V52.4z M51,50.4v-3h1v3H51z M54,50.4v-3h1v3H54z M11,28.4v12h14v-12H11z M23,30.4
          v8H13v-8H23z"/>
</g>
</svg>
