<svg width="100%" height="100%" viewBox="0 0 60 60" >
  <path d="M25,54.8c0.2,0.4,0.2,0.4,0.2,0.5c0,0.1,0.1,0.2,0.2,0.3c0,0.1,0.1,0.1,0.1,0.2
			c0,0,0,0,0,0l0,0c0,0,0,0.1,0.1,0.1c0,0,0,0,0,0.1l0,0c0,0,0,0.1,0,0.1c0,0,0,0.1,0,0.1c0,0,0,0.1,0,0.1c0,0,0,0.1,0,0.1
			c0,0,0,0.1,0,0.1H8.6c0.4-1.3,1.2-3.2,2.2-3.5c0.4-0.2,0.7-0.6,0.7-1.1c0-1.6,1.2-4.2,2.6-4.2c0.1,0,0.1,0,0.2,0
			c0.4,0,0.7-0.7,0.9-1.6c0-0.1,0.1-0.3,0.1-0.3c0.4-1.1,1.3-1.8,2.2-1.8c0.7,0,1.3,0.8,1.6,1.4c0.4,0.8,0.7,1.8,0.8,2.5
			c0,0.6,0.4,1.1,1,1.1c0.2,0,0.4,0.1,0.6,0.2l0,0c0,0,0.1,0,0.1,0.1l0,0c0,0,0.1,0,0.1,0.1l0,0c0,0,0.1,0.1,0.1,0.1l0,0
			c0,0,0,0,0.1,0c0,0,0,0,0,0l0,0c0,0,0.1,0,0.1,0.1c0,0,0,0,0,0c0,0,0.1,0.1,0.1,0.1l0,0c0.1,0.1,0.5,1,0.9,1.7
			c0.6,1.2,0.8,1.5,0.9,1.6l0,0C24.2,53.1,24.7,54.3,25,54.8z M24.5,49.1C24.5,49.1,24.5,49.1,24.5,49.1L24.5,49.1
			c-0.1-0.1-0.1-0.2-0.2-0.3c0,0,0-0.1-0.1-0.1l0,0c0-0.1-0.1-0.1-0.1-0.2c0-0.1-0.1-0.1-0.1-0.2c0,0-0.1-0.1-0.1-0.1
			c0-0.1-0.1-0.1-0.1-0.2c0,0,0,0,0-0.1l0,0c-0.1-0.1-0.2-0.2-0.3-0.3l0-0.1c0-0.1-0.1-0.1-0.1-0.2c0,0-0.1-0.1-0.1-0.1
			c0,0-0.1-0.1-0.1-0.1c0,0-0.1-0.1-0.1-0.1l0,0c0,0-0.1-0.1-0.1-0.1c0,0-0.1-0.1-0.1-0.1c1.2-2.2,2.3-3.2,3.3-3.2
			c0.1,0,0.2,0,0.3,0c0.5,0,1-0.3,1.2-0.8c0.6-1.5,1.9-2.5,3.4-2.5c1.9,0,3.5,1.7,3.7,3.8c0,0.3,0.4,2.4,1.1,2.5
			c1.4,0.1,2.7,1.2,3.2,2.7c0,0.1,0.1,0.2,0.1,0.4c0.3,1.1,0.4,1.6,0.8,1.7c1.7,0.4,3,3.2,3.2,5.1H28.1c0-0.1,0-0.2,0-0.3l0,0
			c0-0.1,0-0.3-0.1-0.4l0,0c0-0.1-0.1-0.3-0.1-0.4l0,0c0-0.1-0.1-0.2-0.1-0.4l0-0.1c0-0.1-0.1-0.2-0.1-0.3l0-0.1
			c-0.1-0.1-0.1-0.2-0.2-0.3l0,0c0,0-1.8-3.4-1.9-3.4c0,0,0,0,0,0C25.4,50.8,25.1,50.2,24.5,49.1z"
       />
  <g fill="#494949">
    <path d="M22.1,55c0.2,0.4,0.2,0.4,0.3,0.4c0,0.1,0.2,0.2,0.2,0.2c0,0.1,0.1,0.1,0.1,0.2c0,0,0,0,0,0
          l0,0c0,0,0,0.1,0.1,0.1c0,0,0,0,0,0.1l0,0c0,0,0,0.1,0.1,0.1c0,0,0,0.1,0,0.1c0,0,0,0.1,0,0.1c0,0,0,0.1,0,0.1c0,0,0,0,0,0.1H4.6
          c0.5-1.1,1.3-2.8,2.4-3.2c0.4-0.1,0.7-0.6,0.8-1c0-1.5,1.2-3.8,2.7-3.8c0.1,0,0.1,0,0.2,0c0.4,0,0.7-0.6,1-1.5
          c0-0.1,0.1-0.2,0.1-0.3c0.4-1,1.3-1.6,2.4-1.6c0.8,0,1.4,0.8,1.7,1.2c0.5,0.7,0.8,1.6,0.9,2.3c0,0.5,0.5,1,1,1
          c0.2,0,0.5,0.1,0.7,0.1l0,0c0,0,0.1,0,0.1,0l0,0c0,0,0.1,0,0.1,0l0,0c0,0,0.1,0.1,0.1,0.1l0,0c0,0,0,0,0.1,0c0,0,0,0,0,0l0,0
          c0,0,0.1,0,0.1,0.1c0,0,0,0,0,0c0,0,0.1,0.1,0.1,0.1l0,0c0.1,0.1,0.6,0.9,1,1.5c0.7,1.1,0.9,1.4,0.9,1.5l0,0
          C21.2,53.5,21.8,54.5,22.1,55 M21.8,50.3C21.8,50.3,21.8,50.3,21.8,50.3L21.8,50.3c-0.1-0.1-0.1-0.2-0.1-0.3c0,0,0-0.1,0-0.1l0,0
          c0,0-0.1-0.1-0.1-0.1c0,0-0.1-0.1-0.1-0.1c0,0-0.1-0.1-0.1-0.1c0,0-0.1-0.1-0.1-0.1c0,0,0,0,0-0.1l0,0c-0.1-0.1-0.2-0.2-0.3-0.3
          l0,0c0,0-0.1-0.1-0.1-0.1c0,0-0.1,0-0.1-0.1c0,0-0.1-0.1-0.1-0.1c0,0-0.1,0-0.1-0.1l0,0c0,0-0.1-0.1-0.1-0.1c0,0-0.1,0-0.1-0.1
          c1.1-1.8,2.1-2.7,3-2.7c0.1,0,0.2,0,0.3,0c0.5,0,0.9-0.2,1.1-0.7c0.5-1.3,1.8-2.1,3.2-2.1c1.8,0,3.3,1.4,3.4,3.2
          c0,0.2,0.3,2.1,1,2.1c1.3,0.1,2.5,1,3,2.3c0,0.1,0.1,0.2,0.1,0.3c0.2,0.9,0.4,1.4,0.7,1.5c1.6,0.3,2.8,2.7,3,4.3H25.1
          c0-0.1,0-0.1,0-0.2l0,0c0-0.1,0-0.2-0.1-0.3l0,0c0-0.1-0.1-0.2-0.1-0.3l0,0c0-0.1-0.1-0.2-0.1-0.3l0,0c0-0.1-0.1-0.2-0.1-0.3l0,0
          c0-0.1-0.1-0.2-0.2-0.3l0,0c0,0-1.7-2.8-1.8-2.9c0,0,0,0,0,0C22.6,51.7,22.3,51.2,21.8,50.3 M55.5,10c-0.3-5.6-4.6-10-9.8-10
          C44,0,42.4,0.5,41,1.3c-0.3,0.1-0.4,0.4-0.5,0.7c-0.1,0.3,0,0.6,0.1,0.8c0.1,0.3,0.4,0.4,0.7,0.5c0.3,0.1,0.6,0,0.8-0.1
          c1.1-0.7,2.4-1,3.6-1c4.2,0,7.7,3.8,7.7,8.4c0,0.4,0.2,0.8,0.6,1c2.3,1.1,3.7,3.7,3.7,6.4c0,3.5-2.3,6.4-5.4,7
          c-0.4,0.1-0.7,0.3-0.8,0.6c-0.9,1.9-2.6,3.3-4.5,3.7v-7.9l4.5-4.1c0.2-0.2,0.3-0.5,0.4-0.8c0-0.3-0.1-0.6-0.3-0.8
          c-0.4-0.4-1.1-0.5-1.6-0.1l-3,2.8v-5.8c0-0.6-0.5-1.1-1.1-1.1s-1.1,0.5-1.1,1.1v10.8l-3-2.8c-0.2-0.2-0.5-0.3-0.8-0.3
          c-0.3,0-0.6,0.1-0.8,0.4c-0.2,0.2-0.3,0.5-0.3,0.8c0,0.3,0.1,0.6,0.4,0.8l4.5,4.1v2.9c-2.1-0.3-3.8-1.7-4.8-3.8
          c-0.1-0.3-0.4-0.5-0.8-0.6c-3-0.6-5.2-3.5-5.2-6.9c0-2.7,1.3-5.1,3.5-6.3c0.4-0.2,0.6-0.6,0.6-1c0,0,0,0,0-0.1l0,0c0,0,0,0,0,0
          c0-1.9,0.6-3.7,1.6-5.2c0.2-0.2,0.2-0.5,0.2-0.8c0-0.3-0.2-0.5-0.4-0.7c-0.2-0.2-0.5-0.2-0.8-0.2c-0.3,0-0.5,0.2-0.7,0.4
          c-1.2,1.7-1.9,3.8-2,6c-2.5,1.7-4.1,4.6-4.1,7.8c0,4.2,2.6,7.9,6.4,8.9c1.4,2.6,3.8,4.3,6.6,4.6v25.1h-3.5
          c-0.1-1.3-0.6-2.9-1.2-4.3c-0.8-1.7-1.8-2.8-2.9-3.1c-0.4-0.9-1.9-3.6-3.8-4.1c-0.6-2.5-2.9-4.3-5.5-4.3c-2,0-3.9,1.1-4.9,2.8
          c-1.8,0.1-3.4,1-4.4,2.5c-0.7-1.6-2.2-2.6-3.9-2.8V41c2.5-0.4,4.7-1.9,6-4.3c1.7-0.4,3.3-1.4,4.5-2.9c1.3-1.6,2-3.7,2-5.8
          c0-3.2-1.6-6.1-4.2-7.7c-0.3-5.4-4.5-9.5-9.5-9.5c-1.9,0-3.8,0.6-5.4,1.8c-0.5,0.4-0.6,1.1-0.2,1.5c0.4,0.5,1.1,0.6,1.5,0.2
          c1.2-0.9,2.6-1.4,4.1-1.4c4,0,7.3,3.6,7.3,8c0,0.4,0.2,0.8,0.6,1c2.2,1.1,3.5,3.5,3.5,6.1c0,3.3-2.2,6.1-5.2,6.6
          c-0.4,0.1-0.7,0.3-0.8,0.6c-0.9,1.8-2.4,3.1-4.2,3.5v-7.5l4.3-4c0.4-0.4,0.5-1.1,0.1-1.6c-0.2-0.2-0.5-0.3-0.8-0.4
          c-0.3,0-0.6,0.1-0.8,0.3l-2.8,2.6v-5.4c0-0.6-0.5-1.1-1.1-1.1c-0.6,0-1.1,0.5-1.1,1.1v10.2l-2.8-2.6c-0.2-0.2-0.5-0.3-0.8-0.3
          c-0.3,0-0.6,0.1-0.8,0.4c-0.2,0.2-0.3,0.5-0.3,0.8c0,0.3,0.1,0.6,0.4,0.8l4.3,4v2.7c-1.9-0.3-3.6-1.7-4.5-3.6
          c-0.1-0.3-0.4-0.5-0.8-0.6c-2.8-0.6-4.9-3.4-4.9-6.6c0-2.5,1.3-4.8,3.3-6c0.4-0.2,0.6-0.6,0.6-1c0,0,0-0.1,0-0.1l0,0
          c0-1.1,0.2-2.2,0.6-3.2c0.1-0.3,0.3-0.6,0.4-0.9c0.1-0.3,0.2-0.6,0.1-0.8c-0.1-0.3-0.3-0.5-0.5-0.7c-0.3-0.1-0.6-0.2-0.8-0.1
          c-0.3,0.1-0.5,0.3-0.7,0.5C5,16.2,4.8,16.6,4.6,17c-0.5,1.1-0.7,2.3-0.8,3.6C1.5,22.2,0,25,0,28.1c0,4,2.5,7.6,6.1,8.6
          c1.3,2.4,3.7,4.1,6.3,4.4v2.4c-1,0.4-1.8,1.1-2.4,2c-2.3,0.2-4.1,4-4.5,6.2c-1.6,0.8-2.8,3.1-3.3,5H1.1c-0.6,0-1.1,0.5-1.1,1.1
          c0,0.6,0.5,1.1,1.1,1.1h54.4c0.6,0,1.1-0.5,1.1-1.1c0-0.6-0.5-1.1-1.1-1.1h-8.5V31.5c2.6-0.4,4.9-2,6.2-4.5
          c1.8-0.4,3.4-1.5,4.7-3c1.3-1.7,2.1-3.8,2.1-6C59.9,14.7,58.2,11.6,55.5,10"/>
  </g>
</svg>
